<?xml version="1.0" encoding="UTF-8" standalone="no"?>
<!-- Created with Inkscape (http://www.inkscape.org/) -->

<svg
   xmlns:dc="http://purl.org/dc/elements/1.1/"
   xmlns:cc="http://creativecommons.org/ns#"
   xmlns:rdf="http://www.w3.org/1999/02/22-rdf-syntax-ns#"
   xmlns:svg="http://www.w3.org/2000/svg"
   xmlns="http://www.w3.org/2000/svg"
   xmlns:sodipodi="http://sodipodi.sourceforge.net/DTD/sodipodi-0.dtd"
   xmlns:inkscape="http://www.inkscape.org/namespaces/inkscape"
   width="30.48mm"
   height="128.5mm"
   viewBox="0 0 30.480002 128.50002"
   version="1.1"
   id="svg8"
   inkscape:version="0.92.3 (2405546, 2018-03-11)"
   sodipodi:docname="Prototype.svg">
  <defs
     id="defs2" />
  <sodipodi:namedview
     id="base"
     pagecolor="#ffffff"
     bordercolor="#666666"
     borderopacity="1.0"
     inkscape:pageopacity="0.0"
     inkscape:pageshadow="2"
     inkscape:zoom="1"
     inkscape:cx="48.62568"
     inkscape:cy="242.83469"
     inkscape:document-units="mm"
     inkscape:current-layer="layer1"
     showgrid="false"
     units="mm"
     inkscape:snap-bbox="true"
     inkscape:snap-page="true"
     inkscape:bbox-nodes="false"
     inkscape:snap-bbox-edge-midpoints="false"
     inkscape:window-width="1600"
     inkscape:window-height="900"
     inkscape:window-x="0"
     inkscape:window-y="0"
     inkscape:window-maximized="0"
     inkscape:snap-bbox-midpoints="true"
     inkscape:snap-nodes="false" />
  <metadata
     id="metadata5">
    <rdf:RDF>
      <cc:Work
         rdf:about="">
        <dc:format>image/svg+xml</dc:format>
        <dc:type
           rdf:resource="http://purl.org/dc/dcmitype/StillImage" />
        <dc:title />
      </cc:Work>
    </rdf:RDF>
  </metadata>
  <g
     inkscape:label="background"
     inkscape:groupmode="layer"
     id="layer1"
     transform="translate(0,-168.49998)"
     style="display:inline">
    <path
       style="display:inline;opacity:1;vector-effect:none;fill:#002b36;fill-opacity:1;fill-rule:evenodd;stroke:none;stroke-width:0.64935839;stroke-linecap:butt;stroke-linejoin:miter;stroke-miterlimit:4;stroke-dasharray:none;stroke-dashoffset:0;stroke-opacity:1;paint-order:normal"
       d="m 0,168.49997 h 30.48 v 128.5 H 0 Z"
       id="rect420" />
    <text
       xml:space="preserve"
       style="font-style:normal;font-variant:normal;font-weight:normal;font-stretch:normal;font-size:3.30729151px;line-height:125%;font-family:'Source Serif Pro';-inkscape-font-specification:'Source Serif Pro';text-align:start;letter-spacing:0px;word-spacing:0px;writing-mode:lr-tb;text-anchor:start;fill:#000000;fill-opacity:1;stroke:none;stroke-width:0.26458332px;stroke-linecap:butt;stroke-linejoin:miter;stroke-opacity:1"
       x="10.205358"
       y="229.72021"
       id="text851"><tspan
         sodipodi:role="line"
         id="tspan849"
         x="10.205358"
         y="232.54794"
         style="stroke-width:0.26458332px" /></text>
  </g>
  <g
     inkscape:groupmode="layer"
     id="layer3"
     inkscape:label="fonts"
     style="display:none"
     sodipodi:insensitive="true">
    <text
       xml:space="preserve"
       style="font-style:normal;font-variant:normal;font-weight:bold;font-stretch:normal;font-size:5.11527777px;line-height:125%;font-family:'Bitstream Vera Serif';-inkscape-font-specification:'Bitstream Vera Serif Bold';font-variant-ligatures:normal;font-variant-caps:normal;font-variant-numeric:normal;font-feature-settings:normal;text-align:start;letter-spacing:0px;word-spacing:0px;writing-mode:lr-tb;text-anchor:start;display:inline;fill:#eee8d5;fill-opacity:1;stroke:none;stroke-width:0.26458332px;stroke-linecap:butt;stroke-linejoin:miter;stroke-opacity:1"
       x="1.2229398"
       y="10.349238"
       id="text847"><tspan
         sodipodi:role="line"
         id="tspan845"
         x="1.2229398"
         y="10.349238"
         style="font-style:normal;font-variant:normal;font-weight:bold;font-stretch:normal;font-size:5.11527777px;font-family:'Bitstream Vera Serif';-inkscape-font-specification:'Bitstream Vera Serif Bold';font-variant-ligatures:normal;font-variant-caps:normal;font-variant-numeric:normal;font-feature-settings:normal;text-align:start;writing-mode:lr-tb;text-anchor:start;fill:#eee8d5;stroke-width:0.26458332px">прототи́п</tspan></text>
    <text
       xml:space="preserve"
       style="font-style:normal;font-variant:normal;font-weight:normal;font-stretch:normal;font-size:4.58611107px;line-height:125%;font-family:'Source Sans Pro';-inkscape-font-specification:'Source Sans Pro';text-align:start;letter-spacing:0px;word-spacing:0px;writing-mode:lr-tb;text-anchor:start;display:inline;fill:#eee8d5;fill-opacity:1;stroke:none;stroke-width:0.26458332px;stroke-linecap:butt;stroke-linejoin:miter;stroke-opacity:1"
       x="10.303517"
       y="57.944965"
       id="text855"><tspan
         sodipodi:role="line"
         id="tspan853"
         x="10.303517"
         y="57.944965"
         style="font-style:normal;font-variant:normal;font-weight:normal;font-stretch:normal;font-size:4.58611107px;font-family:'Source Sans Pro';-inkscape-font-specification:'Source Sans Pro';fill:#eee8d5;stroke-width:0.26458332px">Pitch</tspan></text>
    <text
       id="text859"
       y="89.26622"
       x="9.1049662"
       style="font-style:normal;font-variant:normal;font-weight:normal;font-stretch:normal;font-size:4.58611107px;line-height:125%;font-family:'Source Sans Pro';-inkscape-font-specification:'Source Sans Pro';text-align:start;letter-spacing:0px;word-spacing:0px;writing-mode:lr-tb;text-anchor:start;display:inline;fill:#eee8d5;fill-opacity:1;stroke:none;stroke-width:0.26458332px;stroke-linecap:butt;stroke-linejoin:miter;stroke-opacity:1"
       xml:space="preserve"><tspan
         style="font-style:normal;font-variant:normal;font-weight:normal;font-stretch:normal;font-size:4.58611107px;font-family:'Source Sans Pro';-inkscape-font-specification:'Source Sans Pro';fill:#eee8d5;stroke-width:0.26458332px"
         y="89.26622"
         x="9.1049662"
         id="tspan857"
         sodipodi:role="line">1V/oct</tspan></text>
    <text
       xml:space="preserve"
       style="font-style:normal;font-variant:normal;font-weight:normal;font-stretch:normal;font-size:4.58611107px;line-height:125%;font-family:'Source Sans Pro';-inkscape-font-specification:'Source Sans Pro';text-align:start;letter-spacing:0px;word-spacing:0px;writing-mode:lr-tb;text-anchor:start;display:inline;fill:#eee8d5;fill-opacity:1;stroke:none;stroke-width:0.26458332px;stroke-linecap:butt;stroke-linejoin:miter;stroke-opacity:1"
       x="11.052486"
       y="119.94497"
       id="text863"><tspan
         sodipodi:role="line"
         id="tspan861"
         x="11.052486"
         y="119.94497"
         style="font-style:normal;font-variant:normal;font-weight:normal;font-stretch:normal;font-size:4.58611107px;font-family:'Source Sans Pro';-inkscape-font-specification:'Source Sans Pro';fill:#eee8d5;stroke-width:0.26458332px">Sine</tspan></text>
  </g>
  <g
     style="display:inline"
     inkscape:label="fonts copy"
     id="g874"
     inkscape:groupmode="layer"
     sodipodi:insensitive="true">
    <g
       aria-label="прототи́п"
       style="font-style:normal;font-variant:normal;font-weight:bold;font-stretch:normal;font-size:5.11527777px;line-height:125%;font-family:'Bitstream Vera Serif';-inkscape-font-specification:'Bitstream Vera Serif Bold';font-variant-ligatures:normal;font-variant-caps:normal;font-variant-numeric:normal;font-feature-settings:normal;text-align:start;letter-spacing:0px;word-spacing:0px;writing-mode:lr-tb;text-anchor:start;display:inline;fill:#eee8d5;fill-opacity:1;stroke:none;stroke-width:0.26458332px;stroke-linecap:butt;stroke-linejoin:miter;stroke-opacity:1"
       id="text860">
      <path
         d="M 1.3977784,10.349238 V 10.047017 H 1.7749303 V 7.9964104 H 1.3977784 v -0.302221 h 3.3968642 v 0.302221 H 4.4149931 v 2.0506066 h 0.3796495 v 0.302221 H 3.2036114 V 10.047017 H 3.5308093 V 7.9964104 H 2.659114 v 2.0506066 h 0.3247003 v 0.302221 z"
         style="font-style:normal;font-variant:normal;font-weight:bold;font-stretch:normal;font-size:5.11527777px;font-family:'Bitstream Vera Serif';-inkscape-font-specification:'Bitstream Vera Serif Bold';font-variant-ligatures:normal;font-variant-caps:normal;font-variant-numeric:normal;font-feature-settings:normal;text-align:start;writing-mode:lr-tb;text-anchor:start;fill:#eee8d5;stroke-width:0.26458332px"
         id="path909"
         inkscape:connector-curvature="0" />
      <path
         d="m 6.350706,8.890585 v 0.2622579 q 0,0.4645711 0.1173916,0.6718797 0.1198894,0.2073084 0.384645,0.2073084 0.2722486,0 0.3821472,-0.2197969 0.1123962,-0.2197971 0.1123962,-0.791769 0,-0.571972 -0.1123962,-0.7892714 -0.1098986,-0.2197971 -0.3821472,-0.2197971 -0.2647556,0 -0.384645,0.2073086 Q 6.350706,8.4260138 6.350706,8.890585 Z M 5.4665223,7.9964104 H 5.0868727 V 7.6941894 H 6.350706 V 8.0313782 Q 6.4631023,7.8240695 6.652927,7.7241618 6.8427518,7.6217563 7.1224935,7.6217563 q 0.5669766,0 0.8916769,0.3746541 0.3271979,0.3721565 0.3271979,1.0240547 0,0.6518982 -0.3271979,1.0265519 -0.3247003,0.374655 -0.8916769,0.374655 -0.2797417,0 -0.4695665,-0.09991 Q 6.4631023,10.219358 6.350706,10.01205 v 1.098985 h 0.4096219 v 0.302221 H 5.0868727 v -0.302221 h 0.3796496 z"
         style="font-style:normal;font-variant:normal;font-weight:bold;font-stretch:normal;font-size:5.11527777px;font-family:'Bitstream Vera Serif';-inkscape-font-specification:'Bitstream Vera Serif Bold';font-variant-ligatures:normal;font-variant-caps:normal;font-variant-numeric:normal;font-feature-settings:normal;text-align:start;writing-mode:lr-tb;text-anchor:start;fill:#eee8d5;stroke-width:0.26458332px"
         id="path911"
         inkscape:connector-curvature="0" />
      <path
         d="m 10.254602,10.139432 q 0.279742,0 0.392138,-0.2397786 0.114894,-0.2397786 0.114894,-0.8791883 0,-0.6394098 -0.112396,-0.8766907 -0.112397,-0.2397786 -0.394636,-0.2397786 -0.2822394,0 -0.3971334,0.2422763 -0.1148939,0.2397786 -0.1148939,0.874193 0,0.6344143 0.1148939,0.8766906 0.114894,0.2422763 0.3971334,0.2422763 z m 0,0.28224 q -0.7018521,0 -1.1014831,-0.372157 -0.3971334,-0.374654 -0.3971334,-1.0290499 0,-0.6568936 0.3971334,-1.0265524 0.399631,-0.3721564 1.1014831,-0.3721564 0.70435,0 1.101483,0.3721564 0.397134,0.3696588 0.397134,1.0265524 0,0.6543959 -0.399632,1.0290499 -0.397133,0.372157 -1.098985,0.372157 z"
         style="font-style:normal;font-variant:normal;font-weight:bold;font-stretch:normal;font-size:5.11527777px;font-family:'Bitstream Vera Serif';-inkscape-font-specification:'Bitstream Vera Serif Bold';font-variant-ligatures:normal;font-variant-caps:normal;font-variant-numeric:normal;font-feature-settings:normal;text-align:start;writing-mode:lr-tb;text-anchor:start;fill:#eee8d5;stroke-width:0.26458332px"
         id="path913"
         inkscape:connector-curvature="0" />
      <path
         d="M 12.127873,8.4160231 V 7.6941894 h 2.767445 V 8.4160231 H 14.593097 V 7.9964104 h -0.639409 v 2.0506066 h 0.3247 v 0.302221 h -1.586036 v -0.302221 h 0.377152 V 7.9964104 h -0.63941 v 0.4196127 z"
         style="font-style:normal;font-variant:normal;font-weight:bold;font-stretch:normal;font-size:5.11527777px;font-family:'Bitstream Vera Serif';-inkscape-font-specification:'Bitstream Vera Serif Bold';font-variant-ligatures:normal;font-variant-caps:normal;font-variant-numeric:normal;font-feature-settings:normal;text-align:start;writing-mode:lr-tb;text-anchor:start;fill:#eee8d5;stroke-width:0.26458332px"
         id="path915"
         inkscape:connector-curvature="0" />
      <path
         d="m 16.838524,10.139432 q 0.279742,0 0.392138,-0.2397786 0.114894,-0.2397786 0.114894,-0.8791883 0,-0.6394098 -0.112396,-0.8766907 -0.112396,-0.2397786 -0.394636,-0.2397786 -0.282239,0 -0.397133,0.2422763 -0.114894,0.2397786 -0.114894,0.874193 0,0.6344143 0.114894,0.8766906 0.114894,0.2422763 0.397133,0.2422763 z m 0,0.28224 q -0.701852,0 -1.101483,-0.372157 -0.397133,-0.374654 -0.397133,-1.0290499 0,-0.6568936 0.397133,-1.0265524 0.399631,-0.3721564 1.101483,-0.3721564 0.70435,0 1.101484,0.3721564 0.397133,0.3696588 0.397133,1.0265524 0,0.6543959 -0.399631,1.0290499 -0.397134,0.372157 -1.098986,0.372157 z"
         style="font-style:normal;font-variant:normal;font-weight:bold;font-stretch:normal;font-size:5.11527777px;font-family:'Bitstream Vera Serif';-inkscape-font-specification:'Bitstream Vera Serif Bold';font-variant-ligatures:normal;font-variant-caps:normal;font-variant-numeric:normal;font-feature-settings:normal;text-align:start;writing-mode:lr-tb;text-anchor:start;fill:#eee8d5;stroke-width:0.26458332px"
         id="path917"
         inkscape:connector-curvature="0" />
      <path
         d="M 18.711795,8.4160231 V 7.6941894 H 21.47924 V 8.4160231 H 21.177019 V 7.9964104 h -0.63941 v 2.0506066 h 0.3247 v 0.302221 h -1.586035 v -0.302221 h 0.377151 V 7.9964104 h -0.639409 v 0.4196127 z"
         style="font-style:normal;font-variant:normal;font-weight:bold;font-stretch:normal;font-size:5.11527777px;font-family:'Bitstream Vera Serif';-inkscape-font-specification:'Bitstream Vera Serif Bold';font-variant-ligatures:normal;font-variant-caps:normal;font-variant-numeric:normal;font-feature-settings:normal;text-align:start;writing-mode:lr-tb;text-anchor:start;fill:#eee8d5;stroke-width:0.26458332px"
         id="path919"
         inkscape:connector-curvature="0" />
      <path
         d="m 21.888862,10.349238 v -0.302221 h 0.377151 V 7.9964104 h -0.377151 v -0.302221 h 1.586035 v 0.302221 h -0.3247 v 1.2038887 l 0.921649,-0.906663 V 7.9964104 h -0.327198 v -0.302221 h 1.591032 v 0.302221 h -0.37965 v 2.0506066 h 0.37965 v 0.302221 h -1.591032 v -0.302221 h 0.327198 V 8.8581149 l -0.921649,0.906663 v 0.2822391 h 0.3247 v 0.302221 z"
         style="font-style:normal;font-variant:normal;font-weight:bold;font-stretch:normal;font-size:5.11527777px;font-family:'Bitstream Vera Serif';-inkscape-font-specification:'Bitstream Vera Serif Bold';font-variant-ligatures:normal;font-variant-caps:normal;font-variant-numeric:normal;font-feature-settings:normal;text-align:start;writing-mode:lr-tb;text-anchor:start;fill:#eee8d5;stroke-width:0.26458332px"
         id="path921"
         inkscape:connector-curvature="0" />
      <path
         d="m 23.842059,6.2580153 h 0.696857 l -0.93164,0.939133 h -0.409622 z"
         style="font-style:normal;font-variant:normal;font-weight:bold;font-stretch:normal;font-size:5.11527777px;font-family:'Bitstream Vera Serif';-inkscape-font-specification:'Bitstream Vera Serif Bold';font-variant-ligatures:normal;font-variant-caps:normal;font-variant-numeric:normal;font-feature-settings:normal;text-align:start;writing-mode:lr-tb;text-anchor:start;fill:#eee8d5;stroke-width:0.26458332px"
         id="path923"
         inkscape:connector-curvature="0" />
      <path
         d="m 25.685357,10.349238 v -0.302221 h 0.377152 V 7.9964104 h -0.377152 v -0.302221 h 3.396864 v 0.302221 h -0.379649 v 2.0506066 h 0.379649 v 0.302221 H 27.49119 v -0.302221 h 0.327198 V 7.9964104 h -0.871695 v 2.0506066 h 0.3247 v 0.302221 z"
         style="font-style:normal;font-variant:normal;font-weight:bold;font-stretch:normal;font-size:5.11527777px;font-family:'Bitstream Vera Serif';-inkscape-font-specification:'Bitstream Vera Serif Bold';font-variant-ligatures:normal;font-variant-caps:normal;font-variant-numeric:normal;font-feature-settings:normal;text-align:start;writing-mode:lr-tb;text-anchor:start;fill:#eee8d5;stroke-width:0.26458332px"
         id="path925"
         inkscape:connector-curvature="0" />
    </g>
    <g
       aria-label="Pitch"
       style="font-style:normal;font-variant:normal;font-weight:normal;font-stretch:normal;font-size:4.58611107px;line-height:125%;font-family:'Source Sans Pro';-inkscape-font-specification:'Source Sans Pro';text-align:start;letter-spacing:0px;word-spacing:0px;writing-mode:lr-tb;text-anchor:start;display:inline;fill:#eee8d5;fill-opacity:1;stroke:none;stroke-width:0.26458332px;stroke-linecap:butt;stroke-linejoin:miter;stroke-opacity:1"
       id="text864">
      <path
         d="m 10.716267,57.944965 h 0.380648 v -1.192389 h 0.4953 c 0.6604,0 1.109838,-0.298097 1.109838,-0.93098 0,-0.6604 -0.454025,-0.885119 -1.128183,-0.885119 h -0.857603 z m 0.380648,-1.504244 v -1.196975 h 0.431094 c 0.527403,0 0.793397,0.142169 0.793397,0.57785 0,0.426508 -0.252236,0.619125 -0.775053,0.619125 z"
         style="font-style:normal;font-variant:normal;font-weight:normal;font-stretch:normal;font-size:4.58611107px;font-family:'Source Sans Pro';-inkscape-font-specification:'Source Sans Pro';fill:#eee8d5;stroke-width:0.26458332px"
         id="path898"
         inkscape:connector-curvature="0" />
      <path
         d="m 13.27718,57.944965 h 0.376061 v -2.22885 H 13.27718 Z m 0.192617,-2.687461 c 0.146756,0 0.261408,-0.100894 0.261408,-0.243064 0,-0.146755 -0.114652,-0.243063 -0.261408,-0.243063 -0.146756,0 -0.261408,0.09631 -0.261408,0.243063 0,0.14217 0.114652,0.243064 0.261408,0.243064 z"
         style="font-style:normal;font-variant:normal;font-weight:normal;font-stretch:normal;font-size:4.58611107px;font-family:'Source Sans Pro';-inkscape-font-specification:'Source Sans Pro';fill:#eee8d5;stroke-width:0.26458332px"
         id="path900"
         inkscape:connector-curvature="0" />
      <path
         d="m 15.107469,57.999999 c 0.137583,0 0.288925,-0.04128 0.41275,-0.08255 l -0.07338,-0.284339 c -0.07338,0.02752 -0.174272,0.05962 -0.252236,0.05962 -0.256823,0 -0.343959,-0.155928 -0.343959,-0.431094 v -1.23825 h 0.600781 v -0.30727 h -0.600781 v -0.623711 h -0.316441 l -0.04586,0.623711 -0.348545,0.02293 v 0.284339 h 0.3302 v 1.233664 c 0,0.440266 0.160514,0.74295 0.637471,0.74295 z"
         style="font-style:normal;font-variant:normal;font-weight:normal;font-stretch:normal;font-size:4.58611107px;font-family:'Source Sans Pro';-inkscape-font-specification:'Source Sans Pro';fill:#eee8d5;stroke-width:0.26458332px"
         id="path902"
         inkscape:connector-curvature="0" />
      <path
         d="m 16.77323,57.999999 c 0.265995,0 0.518231,-0.105481 0.72002,-0.284339 l -0.1651,-0.252236 c -0.137584,0.123825 -0.316442,0.224719 -0.522817,0.224719 -0.408164,0 -0.687917,-0.343958 -0.687917,-0.853017 0,-0.513644 0.293512,-0.862188 0.697089,-0.862188 0.178859,0 0.316442,0.08255 0.444853,0.197202 l 0.192617,-0.24765 c -0.155928,-0.142169 -0.357717,-0.261408 -0.651228,-0.261408 -0.573264,0 -1.07315,0.426508 -1.07315,1.174044 0,0.738364 0.454025,1.164873 1.045633,1.164873 z"
         style="font-style:normal;font-variant:normal;font-weight:normal;font-stretch:normal;font-size:4.58611107px;font-family:'Source Sans Pro';-inkscape-font-specification:'Source Sans Pro';fill:#eee8d5;stroke-width:0.26458332px"
         id="path904"
         inkscape:connector-curvature="0" />
      <path
         d="m 17.979736,57.944965 h 0.376061 v -1.614311 c 0.224719,-0.224719 0.380647,-0.343958 0.609952,-0.343958 0.293512,0 0.421923,0.178858 0.421923,0.596194 v 1.362075 h 0.376061 v -1.412522 c 0,-0.568678 -0.210961,-0.871361 -0.678745,-0.871361 -0.307269,0 -0.531989,0.1651 -0.74295,0.366889 l 0.01376,-0.458611 v -0.889706 h -0.376061 z"
         style="font-style:normal;font-variant:normal;font-weight:normal;font-stretch:normal;font-size:4.58611107px;font-family:'Source Sans Pro';-inkscape-font-specification:'Source Sans Pro';fill:#eee8d5;stroke-width:0.26458332px"
         id="path906"
         inkscape:connector-curvature="0" />
    </g>
    <g
       aria-label="1V/oct"
       style="font-style:normal;font-variant:normal;font-weight:normal;font-stretch:normal;font-size:4.58611107px;line-height:125%;font-family:'Source Sans Pro';-inkscape-font-specification:'Source Sans Pro';text-align:start;letter-spacing:0px;word-spacing:0px;writing-mode:lr-tb;text-anchor:start;display:inline;fill:#eee8d5;fill-opacity:1;stroke:none;stroke-width:0.26458332px;stroke-linecap:butt;stroke-linejoin:miter;stroke-opacity:1"
       id="text868">
      <path
         d="m 9.4672689,89.26622 h 1.6510001 v -0.311855 h -0.605367 v -2.614084 h -0.288925 c -0.160514,0.09631 -0.3531303,0.169686 -0.6191247,0.215547 v 0.243064 h 0.5319887 v 2.155473 H 9.4672689 Z"
         style="font-style:normal;font-variant:normal;font-weight:normal;font-stretch:normal;font-size:4.58611107px;font-family:'Source Sans Pro';-inkscape-font-specification:'Source Sans Pro';fill:#eee8d5;stroke-width:0.26458332px"
         id="path885"
         inkscape:connector-curvature="0" />
      <path
         d="m 12.34319,89.26622 h 0.444853 l 0.953911,-3.008489 h -0.389819 l -0.481542,1.623484 c -0.10548,0.357716 -0.178858,0.642055 -0.288925,0.995186 h -0.01834 c -0.114653,-0.353131 -0.183445,-0.63747 -0.293511,-0.995186 l -0.481542,-1.623484 h -0.408164 z"
         style="font-style:normal;font-variant:normal;font-weight:normal;font-stretch:normal;font-size:4.58611107px;font-family:'Source Sans Pro';-inkscape-font-specification:'Source Sans Pro';fill:#eee8d5;stroke-width:0.26458332px"
         id="path887"
         inkscape:connector-curvature="0" />
      <path
         d="m 13.575708,89.999998 h 0.275166 l 1.224492,-3.989917 h -0.275167 z"
         style="font-style:normal;font-variant:normal;font-weight:normal;font-stretch:normal;font-size:4.58611107px;font-family:'Source Sans Pro';-inkscape-font-specification:'Source Sans Pro';fill:#eee8d5;stroke-width:0.26458332px"
         id="path889"
         inkscape:connector-curvature="0" />
      <path
         d="m 16.232714,89.321253 c 0.545747,0 1.031875,-0.426508 1.031875,-1.164872 0,-0.747536 -0.486128,-1.174044 -1.031875,-1.174044 -0.545747,0 -1.031875,0.426508 -1.031875,1.174044 0,0.738364 0.486128,1.164872 1.031875,1.164872 z m 0,-0.311855 c -0.380647,0 -0.642055,-0.343958 -0.642055,-0.853017 0,-0.513644 0.261408,-0.862189 0.642055,-0.862189 0.385234,0 0.642056,0.348545 0.642056,0.862189 0,0.509059 -0.256822,0.853017 -0.642056,0.853017 z"
         style="font-style:normal;font-variant:normal;font-weight:normal;font-stretch:normal;font-size:4.58611107px;font-family:'Source Sans Pro';-inkscape-font-specification:'Source Sans Pro';fill:#eee8d5;stroke-width:0.26458332px"
         id="path891"
         inkscape:connector-curvature="0" />
      <path
         d="m 18.736587,89.321253 c 0.265995,0 0.518231,-0.10548 0.72002,-0.284338 l -0.1651,-0.252237 c -0.137584,0.123825 -0.316442,0.22472 -0.522817,0.22472 -0.408164,0 -0.687917,-0.343958 -0.687917,-0.853017 0,-0.513644 0.293512,-0.862189 0.697089,-0.862189 0.178859,0 0.316442,0.08255 0.444853,0.197203 l 0.192617,-0.24765 c -0.155928,-0.142169 -0.357717,-0.261408 -0.651228,-0.261408 -0.573264,0 -1.07315,0.426508 -1.07315,1.174044 0,0.738364 0.454025,1.164872 1.045633,1.164872 z"
         style="font-style:normal;font-variant:normal;font-weight:normal;font-stretch:normal;font-size:4.58611107px;font-family:'Source Sans Pro';-inkscape-font-specification:'Source Sans Pro';fill:#eee8d5;stroke-width:0.26458332px"
         id="path893"
         inkscape:connector-curvature="0" />
      <path
         d="m 20.599982,89.321253 c 0.137583,0 0.288925,-0.04127 0.41275,-0.08255 l -0.07338,-0.284338 c -0.07338,0.02752 -0.174272,0.05962 -0.252236,0.05962 -0.256823,0 -0.343959,-0.155928 -0.343959,-0.431094 v -1.23825 h 0.600781 v -0.30727 H 20.343157 V 86.41366 h -0.316441 l -0.04586,0.623711 -0.348545,0.02293 v 0.284339 h 0.3302 v 1.233663 c 0,0.440267 0.160514,0.74295 0.63747,0.74295 z"
         style="font-style:normal;font-variant:normal;font-weight:normal;font-stretch:normal;font-size:4.58611107px;font-family:'Source Sans Pro';-inkscape-font-specification:'Source Sans Pro';fill:#eee8d5;stroke-width:0.26458332px"
         id="path895"
         inkscape:connector-curvature="0" />
    </g>
    <g
       aria-label="Sine"
       style="font-style:normal;font-variant:normal;font-weight:normal;font-stretch:normal;font-size:4.58611107px;line-height:125%;font-family:'Source Sans Pro';-inkscape-font-specification:'Source Sans Pro';text-align:start;letter-spacing:0px;word-spacing:0px;writing-mode:lr-tb;text-anchor:start;display:inline;fill:#eee8d5;fill-opacity:1;stroke:none;stroke-width:0.26458332px;stroke-linecap:butt;stroke-linejoin:miter;stroke-opacity:1"
       id="text872">
      <path
         d="m 12.299909,120 c 0.632883,0 1.022702,-0.38064 1.022702,-0.8576 0,-0.44485 -0.27058,-0.65123 -0.619125,-0.80257 l -0.426508,-0.18344 c -0.238478,-0.1009 -0.499886,-0.21097 -0.499886,-0.49989 0,-0.27058 0.224719,-0.44027 0.559506,-0.44027 0.279752,0 0.499886,0.11007 0.68333,0.28434 l 0.206375,-0.24765 c -0.215547,-0.22013 -0.531989,-0.37147 -0.889705,-0.37147 -0.545748,0 -0.944739,0.33937 -0.944739,0.79798 0,0.44027 0.325614,0.65581 0.609952,0.77505 l 0.431095,0.18803 c 0.284339,0.12841 0.499886,0.22472 0.499886,0.53199 0,0.29351 -0.233892,0.49072 -0.628297,0.49072 -0.311856,0 -0.614539,-0.15135 -0.830086,-0.37606 l -0.229306,0.26599 C 11.506511,119.82573 11.877986,120 12.299909,120 Z"
         style="font-style:normal;font-variant:normal;font-weight:normal;font-stretch:normal;font-size:4.58611107px;font-family:'Source Sans Pro';-inkscape-font-specification:'Source Sans Pro';fill:#eee8d5;stroke-width:0.26458332px"
         id="path876"
         inkscape:connector-curvature="0" />
      <path
         d="m 13.873876,119.94497 h 0.376061 v -2.22885 h -0.376061 z m 0.192617,-2.68746 c 0.146755,0 0.261408,-0.1009 0.261408,-0.24307 0,-0.14675 -0.114653,-0.24306 -0.261408,-0.24306 -0.146756,0 -0.261408,0.0963 -0.261408,0.24306 0,0.14217 0.114652,0.24307 0.261408,0.24307 z"
         style="font-style:normal;font-variant:normal;font-weight:normal;font-stretch:normal;font-size:4.58611107px;font-family:'Source Sans Pro';-inkscape-font-specification:'Source Sans Pro';fill:#eee8d5;stroke-width:0.26458332px"
         id="path878"
         inkscape:connector-curvature="0" />
      <path
         d="m 15.002489,119.94497 h 0.376062 v -1.61431 c 0.224719,-0.22472 0.380647,-0.34396 0.609952,-0.34396 0.293511,0 0.421923,0.17886 0.421923,0.59619 v 1.36208 h 0.376061 v -1.41252 c 0,-0.56868 -0.210961,-0.87136 -0.678745,-0.87136 -0.307269,0 -0.536575,0.1651 -0.747536,0.37606 h -0.01376 l -0.0321,-0.32103 H 15.00249 Z"
         style="font-style:normal;font-variant:normal;font-weight:normal;font-stretch:normal;font-size:4.58611107px;font-family:'Source Sans Pro';-inkscape-font-specification:'Source Sans Pro';fill:#eee8d5;stroke-width:0.26458332px"
         id="path880"
         inkscape:connector-curvature="0" />
      <path
         d="m 18.413983,120 c 0.302683,0 0.541161,-0.10548 0.733777,-0.2293 l -0.132997,-0.24765 c -0.1651,0.10548 -0.343958,0.17427 -0.554919,0.17427 -0.426509,0 -0.715434,-0.30268 -0.74295,-0.77505 h 1.504244 c 0.0092,-0.055 0.01376,-0.13759 0.01376,-0.21555 0,-0.63747 -0.321027,-1.04563 -0.889705,-1.04563 -0.509058,0 -0.999772,0.44485 -0.999772,1.17404 0,0.72919 0.472369,1.16487 1.068564,1.16487 z m -0.701675,-1.34831 c 0.04586,-0.44027 0.3302,-0.69251 0.642055,-0.69251 0.348545,0 0.550333,0.24307 0.550333,0.69251 z"
         style="font-style:normal;font-variant:normal;font-weight:normal;font-stretch:normal;font-size:4.58611107px;font-family:'Source Sans Pro';-inkscape-font-specification:'Source Sans Pro';fill:#eee8d5;stroke-width:0.26458332px"
         id="path882"
         inkscape:connector-curvature="0" />
    </g>
  </g>
  <g
     inkscape:groupmode="layer"
     id="layer2"
     inkscape:label="components"
     style="display:none"
     sodipodi:insensitive="true">
    <circle
       style="display:inline;opacity:1;vector-effect:none;fill:#ff0000;fill-opacity:1;fill-rule:evenodd;stroke:none;stroke-width:1;stroke-linecap:butt;stroke-linejoin:miter;stroke-miterlimit:4;stroke-dasharray:none;stroke-dashoffset:0;stroke-opacity:1;paint-order:normal"
       id="path4954"
       cx="15.24"
       cy="46.063263"
       r="4"
       inkscape:label="pitch" />
    <circle
       r="4"
       cy="77.477875"
       cx="15.24"
       id="circle4956"
       style="display:inline;opacity:1;vector-effect:none;fill:#00ff00;fill-opacity:1;fill-rule:evenodd;stroke:none;stroke-width:1;stroke-linecap:butt;stroke-linejoin:miter;stroke-miterlimit:4;stroke-dasharray:none;stroke-dashoffset:0;stroke-opacity:1;paint-order:normal"
       inkscape:label="pitch" />
    <circle
       style="display:inline;opacity:1;vector-effect:none;fill:#0000ff;fill-opacity:1;fill-rule:evenodd;stroke:none;stroke-width:1;stroke-linecap:butt;stroke-linejoin:miter;stroke-miterlimit:4;stroke-dasharray:none;stroke-dashoffset:0;stroke-opacity:1;paint-order:normal"
       id="circle4958"
       cx="15.24"
       cy="108.71259"
       r="4"
       inkscape:label="sine" />
    <circle
       inkscape:label="blink"
       r="4"
       cy="25.80987"
       cx="15.24"
       id="circle66"
       style="display:inline;opacity:1;vector-effect:none;fill:#ff00ff;fill-opacity:1;fill-rule:evenodd;stroke:none;stroke-width:1;stroke-linecap:butt;stroke-linejoin:miter;stroke-miterlimit:4;stroke-dasharray:none;stroke-dashoffset:0;stroke-opacity:1;paint-order:normal" />
  </g>
</svg>
